<mxfile host="Electron" agent="Mozilla/5.0 (X11; Linux x86_64) AppleWebKit/537.36 (KHTML, like Gecko) draw.io/26.0.16 Chrome/132.0.6834.196 Electron/34.2.0 Safari/537.36" version="26.0.16">
  <diagram name="Page-1" id="9f46799a-70d6-7492-0946-bef42562c5a5">
    <mxGraphModel dx="2807" dy="-484" grid="0" gridSize="10" guides="1" tooltips="1" connect="1" arrows="1" fold="1" page="1" pageScale="1" pageWidth="1100" pageHeight="850" background="#FFCE9F" math="0" shadow="0">
      <root>
        <mxCell id="0" />
        <mxCell id="1" parent="0" />
        <mxCell id="JdCWdgSExFU_v7JM7AU1-28" value="" style="rounded=0;whiteSpace=wrap;html=1;" vertex="1" parent="1">
          <mxGeometry x="-576" y="1675" width="529" height="159" as="geometry" />
        </mxCell>
        <mxCell id="JdCWdgSExFU_v7JM7AU1-27" value="" style="rounded=0;whiteSpace=wrap;html=1;" vertex="1" parent="1">
          <mxGeometry x="-1173" y="1828" width="537" height="227" as="geometry" />
        </mxCell>
        <mxCell id="F70WmoociPYeX5_3-wgn-4" value="&lt;span style=&quot;font-size: 22px;&quot;&gt;Data Reader&lt;/span&gt;" style="shape=module;align=left;spacingLeft=20;align=center;verticalAlign=top;whiteSpace=wrap;html=1;" parent="1" vertex="1">
          <mxGeometry x="-705" y="954" width="1055" height="671" as="geometry" />
        </mxCell>
        <mxCell id="vJ2KPYaT7CfqQhwvJW_M-99" value="&lt;font style=&quot;font-size: 22px;&quot;&gt;Batch Factory&lt;/font&gt;" style="shape=module;align=left;spacingLeft=20;align=center;verticalAlign=top;whiteSpace=wrap;html=1;" parent="1" vertex="1">
          <mxGeometry x="-158" y="2069" width="926.75" height="1037" as="geometry" />
        </mxCell>
        <mxCell id="_LQi3goQdABTxO5C51Vf-141" style="edgeStyle=orthogonalEdgeStyle;rounded=0;orthogonalLoop=1;jettySize=auto;html=1;exitX=0;exitY=0;exitDx=0;exitDy=35;exitPerimeter=0;entryX=1;entryY=0.5;entryDx=0;entryDy=0;" parent="1" source="_LQi3goQdABTxO5C51Vf-139" target="_LQi3goQdABTxO5C51Vf-29" edge="1">
          <mxGeometry relative="1" as="geometry" />
        </mxCell>
        <mxCell id="_LQi3goQdABTxO5C51Vf-139" value="" style="shape=module;align=left;spacingLeft=20;align=center;verticalAlign=top;whiteSpace=wrap;html=1;" parent="1" vertex="1">
          <mxGeometry x="-1907" y="954" width="1016" height="664" as="geometry" />
        </mxCell>
        <mxCell id="qjjQDpRlZ653jrpLIo1R-124" style="edgeStyle=orthogonalEdgeStyle;rounded=0;orthogonalLoop=1;jettySize=auto;html=1;entryX=0;entryY=0.5;entryDx=0;entryDy=0;" parent="1" source="_LQi3goQdABTxO5C51Vf-115" target="_LQi3goQdABTxO5C51Vf-124" edge="1">
          <mxGeometry relative="1" as="geometry" />
        </mxCell>
        <mxCell id="_LQi3goQdABTxO5C51Vf-115" value="" style="rounded=0;whiteSpace=wrap;html=1;" parent="1" vertex="1">
          <mxGeometry x="-1845.5" y="1117.5" width="140" height="452" as="geometry" />
        </mxCell>
        <mxCell id="cgtKHkuM48J9Ty5OMgtg-14" style="edgeStyle=orthogonalEdgeStyle;rounded=0;orthogonalLoop=1;jettySize=auto;html=1;exitX=0.5;exitY=1;exitDx=0;exitDy=0;entryX=0.5;entryY=0;entryDx=0;entryDy=0;" parent="1" source="lU-VyZ4p-aKHjOAaM008-4" target="cgtKHkuM48J9Ty5OMgtg-1" edge="1">
          <mxGeometry relative="1" as="geometry" />
        </mxCell>
        <mxCell id="lU-VyZ4p-aKHjOAaM008-4" value="&lt;font style=&quot;&quot;&gt;&lt;span style=&quot;font-size: 20px;&quot;&gt;Memory Analyzer&amp;nbsp;&lt;/span&gt;&lt;br&gt;&lt;font style=&quot;font-size: 16px;&quot;&gt;(tracks current RAM situation)&lt;/font&gt;&lt;br&gt;&lt;/font&gt;" style="rounded=1;whiteSpace=wrap;html=1;" parent="1" vertex="1">
          <mxGeometry x="-2011.5" y="2128" width="180" height="80" as="geometry" />
        </mxCell>
        <mxCell id="cgtKHkuM48J9Ty5OMgtg-1" value="MemoryAnalyzer" style="swimlane;html=1;fontStyle=1;align=center;verticalAlign=top;childLayout=stackLayout;horizontal=1;startSize=26;horizontalStack=0;resizeParent=1;resizeLast=0;collapsible=1;marginBottom=0;swimlaneFillColor=#ffffff;rounded=0;shadow=0;comic=0;labelBackgroundColor=none;strokeWidth=1;fillColor=none;fontFamily=Verdana;fontSize=12" parent="1" vertex="1">
          <mxGeometry x="-2089" y="2240.5" width="335" height="165.5" as="geometry" />
        </mxCell>
        <mxCell id="6h01rewfft6A5AupVk-a-8" value="+ __graph_memory_percent: float" style="text;html=1;strokeColor=none;fillColor=none;align=left;verticalAlign=top;spacingLeft=4;spacingRight=4;whiteSpace=wrap;overflow=hidden;rotatable=0;points=[[0,0.5],[1,0.5]];portConstraint=eastwest;" parent="cgtKHkuM48J9Ty5OMgtg-1" vertex="1">
          <mxGeometry y="26" width="335" height="26" as="geometry" />
        </mxCell>
        <mxCell id="cgtKHkuM48J9Ty5OMgtg-7" value="" style="line;html=1;strokeWidth=1;fillColor=none;align=left;verticalAlign=middle;spacingTop=-1;spacingLeft=3;spacingRight=3;rotatable=0;labelPosition=right;points=[];portConstraint=eastwest;" parent="cgtKHkuM48J9Ty5OMgtg-1" vertex="1">
          <mxGeometry y="52" width="335" height="8" as="geometry" />
        </mxCell>
        <mxCell id="cgtKHkuM48J9Ty5OMgtg-2" value="+ used_memory_percent (@property): float" style="text;html=1;strokeColor=none;fillColor=none;align=left;verticalAlign=top;spacingLeft=4;spacingRight=4;whiteSpace=wrap;overflow=hidden;rotatable=0;points=[[0,0.5],[1,0.5]];portConstraint=eastwest;" parent="cgtKHkuM48J9Ty5OMgtg-1" vertex="1">
          <mxGeometry y="60" width="335" height="26" as="geometry" />
        </mxCell>
        <mxCell id="cgtKHkuM48J9Ty5OMgtg-3" value="+ total_memory: (@property): float" style="text;html=1;strokeColor=none;fillColor=none;align=left;verticalAlign=top;spacingLeft=4;spacingRight=4;whiteSpace=wrap;overflow=hidden;rotatable=0;points=[[0,0.5],[1,0.5]];portConstraint=eastwest;" parent="cgtKHkuM48J9Ty5OMgtg-1" vertex="1">
          <mxGeometry y="86" width="335" height="26" as="geometry" />
        </mxCell>
        <mxCell id="cgtKHkuM48J9Ty5OMgtg-4" value="+ available_memory_percent: (@property): float" style="text;html=1;strokeColor=none;fillColor=none;align=left;verticalAlign=top;spacingLeft=4;spacingRight=4;whiteSpace=wrap;overflow=hidden;rotatable=0;points=[[0,0.5],[1,0.5]];portConstraint=eastwest;" parent="cgtKHkuM48J9Ty5OMgtg-1" vertex="1">
          <mxGeometry y="112" width="335" height="26" as="geometry" />
        </mxCell>
        <mxCell id="O0jGP6CYuqxbWLlgePDv-6" value="+ permissible_memory_percent: (@property): float" style="text;html=1;strokeColor=none;fillColor=none;align=left;verticalAlign=top;spacingLeft=4;spacingRight=4;whiteSpace=wrap;overflow=hidden;rotatable=0;points=[[0,0.5],[1,0.5]];portConstraint=eastwest;" parent="cgtKHkuM48J9Ty5OMgtg-1" vertex="1">
          <mxGeometry y="138" width="335" height="26" as="geometry" />
        </mxCell>
        <mxCell id="_LQi3goQdABTxO5C51Vf-140" style="edgeStyle=orthogonalEdgeStyle;rounded=0;orthogonalLoop=1;jettySize=auto;html=1;entryX=0;entryY=0;entryDx=0;entryDy=15;entryPerimeter=0;" parent="1" source="_LQi3goQdABTxO5C51Vf-28" target="_LQi3goQdABTxO5C51Vf-139" edge="1">
          <mxGeometry relative="1" as="geometry" />
        </mxCell>
        <mxCell id="_LQi3goQdABTxO5C51Vf-28" value="&lt;font style=&quot;font-size: 22px;&quot;&gt;DataManager commands&lt;/font&gt;" style="html=1;whiteSpace=wrap;" parent="1" vertex="1">
          <mxGeometry x="-2145" y="886" width="182" height="84" as="geometry" />
        </mxCell>
        <mxCell id="_LQi3goQdABTxO5C51Vf-29" value="&lt;font style=&quot;font-size: 22px;&quot;&gt;Data Batch&lt;/font&gt;" style="html=1;whiteSpace=wrap;" parent="1" vertex="1">
          <mxGeometry x="-2124" y="1005" width="140" height="50" as="geometry" />
        </mxCell>
        <mxCell id="_LQi3goQdABTxO5C51Vf-53" value="&lt;font style=&quot;font-size: 22px;&quot;&gt;File 1&lt;/font&gt;" style="verticalLabelPosition=bottom;verticalAlign=top;html=1;shape=card;whiteSpace=wrap;size=20;arcSize=12;" parent="1" vertex="1">
          <mxGeometry x="-1811.5" y="1134.5" width="63" height="95" as="geometry" />
        </mxCell>
        <mxCell id="_LQi3goQdABTxO5C51Vf-54" value="&lt;font style=&quot;font-size: 22px;&quot;&gt;File 2&lt;/font&gt;" style="verticalLabelPosition=bottom;verticalAlign=top;html=1;shape=card;whiteSpace=wrap;size=20;arcSize=12;" parent="1" vertex="1">
          <mxGeometry x="-1811.5" y="1271.5" width="63" height="95" as="geometry" />
        </mxCell>
        <mxCell id="_LQi3goQdABTxO5C51Vf-55" value="&lt;font style=&quot;font-size: 22px;&quot;&gt;File M&lt;/font&gt;" style="verticalLabelPosition=bottom;verticalAlign=top;html=1;shape=card;whiteSpace=wrap;size=20;arcSize=12;" parent="1" vertex="1">
          <mxGeometry x="-1811.5" y="1408.5" width="63" height="95" as="geometry" />
        </mxCell>
        <mxCell id="_LQi3goQdABTxO5C51Vf-60" value="&lt;font style=&quot;font-size: 22px;&quot;&gt;Data storage&lt;/font&gt;" style="text;html=1;strokeColor=none;fillColor=none;align=center;verticalAlign=middle;whiteSpace=wrap;rounded=0;" parent="1" vertex="1">
          <mxGeometry x="-1851" y="1077.5" width="151" height="30" as="geometry" />
        </mxCell>
        <mxCell id="_LQi3goQdABTxO5C51Vf-122" value="&lt;font style=&quot;&quot;&gt;&lt;span style=&quot;font-size: 20px;&quot;&gt;Memory Analyzer&amp;nbsp;&lt;/span&gt;&lt;br&gt;&lt;font style=&quot;font-size: 16px;&quot;&gt;(tracks RAM)&lt;/font&gt;&lt;br&gt;&lt;/font&gt;" style="rounded=1;whiteSpace=wrap;html=1;" parent="1" vertex="1">
          <mxGeometry x="-1141" y="1068" width="180" height="80" as="geometry" />
        </mxCell>
        <mxCell id="_LQi3goQdABTxO5C51Vf-126" style="edgeStyle=orthogonalEdgeStyle;rounded=0;orthogonalLoop=1;jettySize=auto;html=1;entryX=0.1;entryY=0.5;entryDx=0;entryDy=0;entryPerimeter=0;" parent="1" source="_LQi3goQdABTxO5C51Vf-123" target="_LQi3goQdABTxO5C51Vf-125" edge="1">
          <mxGeometry relative="1" as="geometry" />
        </mxCell>
        <mxCell id="_LQi3goQdABTxO5C51Vf-123" value="&lt;font style=&quot;&quot;&gt;&lt;span style=&quot;font-size: 20px;&quot;&gt;Batch Factory&lt;/span&gt;&lt;br&gt;&lt;font style=&quot;font-size: 16px;&quot;&gt;(creates batches from file(s) based on available RAM)&lt;/font&gt;&lt;br&gt;&lt;/font&gt;" style="rounded=1;whiteSpace=wrap;html=1;" parent="1" vertex="1">
          <mxGeometry x="-1430.37" y="1055" width="160" height="106" as="geometry" />
        </mxCell>
        <mxCell id="_LQi3goQdABTxO5C51Vf-127" value="" style="shape=flexArrow;endArrow=classic;startArrow=classic;html=1;rounded=0;entryX=1;entryY=0.5;entryDx=0;entryDy=0;width=8.421052631578947;startSize=6.6947368421052635;exitX=0;exitY=0.5;exitDx=0;exitDy=0;" parent="1" source="_LQi3goQdABTxO5C51Vf-122" target="_LQi3goQdABTxO5C51Vf-123" edge="1">
          <mxGeometry width="100" height="100" relative="1" as="geometry">
            <mxPoint x="-1462" y="816.5" as="sourcePoint" />
            <mxPoint x="-1426.5" y="818.5" as="targetPoint" />
          </mxGeometry>
        </mxCell>
        <mxCell id="6h01rewfft6A5AupVk-a-5" style="edgeStyle=orthogonalEdgeStyle;rounded=0;orthogonalLoop=1;jettySize=auto;html=1;entryX=0;entryY=0.5;entryDx=0;entryDy=0;" parent="1" source="_LQi3goQdABTxO5C51Vf-124" target="6h01rewfft6A5AupVk-a-1" edge="1">
          <mxGeometry relative="1" as="geometry" />
        </mxCell>
        <mxCell id="_LQi3goQdABTxO5C51Vf-124" value="&lt;font style=&quot;&quot;&gt;&lt;span style=&quot;font-size: 20px;&quot;&gt;Data Reader&lt;/span&gt;&lt;br&gt;&lt;/font&gt;" style="rounded=1;whiteSpace=wrap;html=1;" parent="1" vertex="1">
          <mxGeometry x="-1622" y="1316" width="109" height="55" as="geometry" />
        </mxCell>
        <mxCell id="DAQNkXUYjtsXxi17LZvh-14" value="&lt;font style=&quot;&quot;&gt;&lt;span style=&quot;font-size: 20px;&quot;&gt;Raw Data Filter (Optional)&lt;/span&gt;&lt;br&gt;&lt;/font&gt;" style="rounded=1;whiteSpace=wrap;html=1;" parent="1" vertex="1">
          <mxGeometry x="-1212" y="1295.5" width="107" height="97" as="geometry" />
        </mxCell>
        <mxCell id="YuVFsrOyRbh0u3Azm9Ra-1" style="edgeStyle=orthogonalEdgeStyle;rounded=0;orthogonalLoop=1;jettySize=auto;html=1;exitX=0.5;exitY=1;exitDx=0;exitDy=0;entryX=0.5;entryY=0;entryDx=0;entryDy=0;" parent="1" source="YuVFsrOyRbh0u3Azm9Ra-2" target="YuVFsrOyRbh0u3Azm9Ra-3" edge="1">
          <mxGeometry relative="1" as="geometry" />
        </mxCell>
        <mxCell id="YuVFsrOyRbh0u3Azm9Ra-2" value="&lt;font style=&quot;&quot;&gt;&lt;span style=&quot;font-size: 20px;&quot;&gt;Data Manager&amp;nbsp;&lt;/span&gt;&lt;br&gt;&lt;font style=&quot;font-size: 16px;&quot;&gt;(manages all data operations)&lt;/font&gt;&lt;br&gt;&lt;/font&gt;" style="rounded=1;whiteSpace=wrap;html=1;" parent="1" vertex="1">
          <mxGeometry x="-1768.5" y="1734.97" width="180" height="80" as="geometry" />
        </mxCell>
        <mxCell id="YuVFsrOyRbh0u3Azm9Ra-3" value="DataManager" style="swimlane;html=1;fontStyle=1;align=center;verticalAlign=top;childLayout=stackLayout;horizontal=1;startSize=26;horizontalStack=0;resizeParent=1;resizeLast=0;collapsible=1;marginBottom=0;swimlaneFillColor=#ffffff;rounded=0;shadow=0;comic=0;labelBackgroundColor=none;strokeWidth=1;fillColor=none;fontFamily=Verdana;fontSize=12" parent="1" vertex="1">
          <mxGeometry x="-1855" y="1860.47" width="353" height="196.96" as="geometry" />
        </mxCell>
        <mxCell id="O0jGP6CYuqxbWLlgePDv-1" value="+ config: Config()" style="text;html=1;strokeColor=none;fillColor=none;align=left;verticalAlign=top;spacingLeft=4;spacingRight=4;whiteSpace=wrap;overflow=hidden;rotatable=0;points=[[0,0.5],[1,0.5]];portConstraint=eastwest;" parent="YuVFsrOyRbh0u3Azm9Ra-3" vertex="1">
          <mxGeometry y="26" width="353" height="26" as="geometry" />
        </mxCell>
        <mxCell id="YuVFsrOyRbh0u3Azm9Ra-5" value="+ batch_factory: BatchFactory()" style="text;html=1;strokeColor=none;fillColor=none;align=left;verticalAlign=top;spacingLeft=4;spacingRight=4;whiteSpace=wrap;overflow=hidden;rotatable=0;points=[[0,0.5],[1,0.5]];portConstraint=eastwest;" parent="YuVFsrOyRbh0u3Azm9Ra-3" vertex="1">
          <mxGeometry y="52" width="353" height="26" as="geometry" />
        </mxCell>
        <mxCell id="YuVFsrOyRbh0u3Azm9Ra-12" value="+ data_filter: RawDataFilter() (&lt;font color=&quot;#7ea6e0&quot;&gt;optional&lt;/font&gt;)" style="text;html=1;strokeColor=none;fillColor=none;align=left;verticalAlign=top;spacingLeft=4;spacingRight=4;whiteSpace=wrap;overflow=hidden;rotatable=0;points=[[0,0.5],[1,0.5]];portConstraint=eastwest;" parent="YuVFsrOyRbh0u3Azm9Ra-3" vertex="1">
          <mxGeometry y="78" width="353" height="26" as="geometry" />
        </mxCell>
        <mxCell id="YuVFsrOyRbh0u3Azm9Ra-7" value="" style="line;html=1;strokeWidth=1;fillColor=none;align=left;verticalAlign=middle;spacingTop=-1;spacingLeft=3;spacingRight=3;rotatable=0;labelPosition=right;points=[];portConstraint=eastwest;" parent="YuVFsrOyRbh0u3Azm9Ra-3" vertex="1">
          <mxGeometry y="104" width="353" height="8" as="geometry" />
        </mxCell>
        <mxCell id="YuVFsrOyRbh0u3Azm9Ra-10" value="+ make_batch(): -&amp;gt; DataBatch" style="text;html=1;strokeColor=none;fillColor=none;align=left;verticalAlign=top;spacingLeft=4;spacingRight=4;whiteSpace=wrap;overflow=hidden;rotatable=0;points=[[0,0.5],[1,0.5]];portConstraint=eastwest;" parent="YuVFsrOyRbh0u3Azm9Ra-3" vertex="1">
          <mxGeometry y="112" width="353" height="26" as="geometry" />
        </mxCell>
        <mxCell id="YuVFsrOyRbh0u3Azm9Ra-11" value="+ make_batch(deque[Element]): -&amp;gt; DataBatch" style="text;html=1;strokeColor=none;fillColor=none;align=left;verticalAlign=top;spacingLeft=4;spacingRight=4;whiteSpace=wrap;overflow=hidden;rotatable=0;points=[[0,0.5],[1,0.5]];portConstraint=eastwest;" parent="YuVFsrOyRbh0u3Azm9Ra-3" vertex="1">
          <mxGeometry y="138" width="353" height="26" as="geometry" />
        </mxCell>
        <mxCell id="6h01rewfft6A5AupVk-a-7" value="+ make_batch(set[PeriodicData]): -&amp;gt; DataBatch" style="text;html=1;strokeColor=none;fillColor=none;align=left;verticalAlign=top;spacingLeft=4;spacingRight=4;whiteSpace=wrap;overflow=hidden;rotatable=0;points=[[0,0.5],[1,0.5]];portConstraint=eastwest;" parent="YuVFsrOyRbh0u3Azm9Ra-3" vertex="1">
          <mxGeometry y="164" width="353" height="26" as="geometry" />
        </mxCell>
        <mxCell id="vJ2KPYaT7CfqQhwvJW_M-85" style="edgeStyle=orthogonalEdgeStyle;rounded=0;orthogonalLoop=1;jettySize=auto;html=1;entryX=0.5;entryY=0;entryDx=0;entryDy=0;" parent="1" source="vJ2KPYaT7CfqQhwvJW_M-37" target="vJ2KPYaT7CfqQhwvJW_M-84" edge="1">
          <mxGeometry relative="1" as="geometry" />
        </mxCell>
        <mxCell id="vJ2KPYaT7CfqQhwvJW_M-37" value="Main Manager" style="ellipse;shape=startState;fillColor=#00FF00;strokeColor=#ff0000;fontColor=#000000;" parent="1" vertex="1">
          <mxGeometry x="4.960000000000036" y="2578.1299999999997" width="106" height="61" as="geometry" />
        </mxCell>
        <mxCell id="vJ2KPYaT7CfqQhwvJW_M-60" value="Stop Criterion ON" style="ellipse;whiteSpace=wrap;html=1;align=center;fillColor=#f8cecc;strokeColor=#b85450;" parent="1" vertex="1">
          <mxGeometry x="182.75" y="2682.5" width="80" height="43.87" as="geometry" />
        </mxCell>
        <mxCell id="vJ2KPYaT7CfqQhwvJW_M-64" value="&lt;font style=&quot;font-size: 18px;&quot;&gt;+&lt;/font&gt;" style="edgeStyle=orthogonalEdgeStyle;rounded=0;orthogonalLoop=1;jettySize=auto;html=1;" parent="1" source="vJ2KPYaT7CfqQhwvJW_M-61" target="vJ2KPYaT7CfqQhwvJW_M-63" edge="1">
          <mxGeometry x="-0.2353" y="16" relative="1" as="geometry">
            <mxPoint as="offset" />
          </mxGeometry>
        </mxCell>
        <mxCell id="vJ2KPYaT7CfqQhwvJW_M-66" style="edgeStyle=orthogonalEdgeStyle;rounded=0;orthogonalLoop=1;jettySize=auto;html=1;entryX=0;entryY=0.5;entryDx=0;entryDy=0;" parent="1" source="vJ2KPYaT7CfqQhwvJW_M-61" target="vJ2KPYaT7CfqQhwvJW_M-65" edge="1">
          <mxGeometry relative="1" as="geometry">
            <mxPoint x="221.9599999999998" y="2786.97" as="targetPoint" />
            <Array as="points" />
          </mxGeometry>
        </mxCell>
        <mxCell id="vJ2KPYaT7CfqQhwvJW_M-67" value="&lt;font style=&quot;font-size: 18px;&quot;&gt;-&lt;/font&gt;" style="edgeLabel;html=1;align=center;verticalAlign=middle;resizable=0;points=[];" parent="vJ2KPYaT7CfqQhwvJW_M-66" vertex="1" connectable="0">
          <mxGeometry x="0.1994" y="-2" relative="1" as="geometry">
            <mxPoint x="-6" y="-17" as="offset" />
          </mxGeometry>
        </mxCell>
        <mxCell id="vJ2KPYaT7CfqQhwvJW_M-61" value="Batch exists?" style="rhombus;fillColor=#ffffc0;strokeColor=#ff0000;" parent="1" vertex="1">
          <mxGeometry x="-9.039999999999964" y="2792.97" width="134" height="55" as="geometry" />
        </mxCell>
        <mxCell id="vJ2KPYaT7CfqQhwvJW_M-90" style="edgeStyle=orthogonalEdgeStyle;rounded=0;orthogonalLoop=1;jettySize=auto;html=1;entryX=0.5;entryY=0;entryDx=0;entryDy=0;" parent="1" source="vJ2KPYaT7CfqQhwvJW_M-63" target="vJ2KPYaT7CfqQhwvJW_M-89" edge="1">
          <mxGeometry relative="1" as="geometry" />
        </mxCell>
        <mxCell id="vJ2KPYaT7CfqQhwvJW_M-63" value="make chunk&lt;br&gt;&amp;amp;&lt;br&gt;send to Frontend Manager" style="whiteSpace=wrap;html=1;align=center;fillColor=#dae8fc;strokeColor=#6c8ebf;" parent="1" vertex="1">
          <mxGeometry x="-14.539999999999964" y="2917.97" width="145" height="40" as="geometry" />
        </mxCell>
        <mxCell id="vJ2KPYaT7CfqQhwvJW_M-92" style="edgeStyle=orthogonalEdgeStyle;rounded=0;orthogonalLoop=1;jettySize=auto;html=1;entryX=0.5;entryY=0;entryDx=0;entryDy=0;" parent="1" source="vJ2KPYaT7CfqQhwvJW_M-65" target="vJ2KPYaT7CfqQhwvJW_M-91" edge="1">
          <mxGeometry relative="1" as="geometry" />
        </mxCell>
        <mxCell id="vJ2KPYaT7CfqQhwvJW_M-65" value="create Batch" style="whiteSpace=wrap;html=1;align=center;" parent="1" vertex="1">
          <mxGeometry x="266.9599999999998" y="2800.47" width="100" height="40" as="geometry" />
        </mxCell>
        <mxCell id="vJ2KPYaT7CfqQhwvJW_M-71" style="edgeStyle=orthogonalEdgeStyle;rounded=0;orthogonalLoop=1;jettySize=auto;html=1;entryX=0.5;entryY=0;entryDx=0;entryDy=0;exitX=0.5;exitY=1;exitDx=0;exitDy=0;" parent="1" source="vJ2KPYaT7CfqQhwvJW_M-91" target="vJ2KPYaT7CfqQhwvJW_M-79" edge="1">
          <mxGeometry relative="1" as="geometry">
            <mxPoint x="316.96000000000026" y="2923.5299999999997" as="sourcePoint" />
            <mxPoint x="316.96000000000026" y="2992.5299999999997" as="targetPoint" />
          </mxGeometry>
        </mxCell>
        <mxCell id="vJ2KPYaT7CfqQhwvJW_M-72" value="&lt;font style=&quot;font-size: 18px;&quot;&gt;+&lt;/font&gt;" style="edgeLabel;html=1;align=center;verticalAlign=middle;resizable=0;points=[];" parent="vJ2KPYaT7CfqQhwvJW_M-71" vertex="1" connectable="0">
          <mxGeometry x="-0.2672" y="-2" relative="1" as="geometry">
            <mxPoint x="2" y="3" as="offset" />
          </mxGeometry>
        </mxCell>
        <mxCell id="vJ2KPYaT7CfqQhwvJW_M-97" style="edgeStyle=orthogonalEdgeStyle;rounded=0;orthogonalLoop=1;jettySize=auto;html=1;entryX=0;entryY=0.5;entryDx=0;entryDy=0;" parent="1" source="vJ2KPYaT7CfqQhwvJW_M-79" target="vJ2KPYaT7CfqQhwvJW_M-61" edge="1">
          <mxGeometry relative="1" as="geometry">
            <Array as="points">
              <mxPoint x="316.9599999999998" y="3094.97" />
              <mxPoint x="-86.03999999999996" y="3094.97" />
              <mxPoint x="-86.03999999999996" y="2819.97" />
            </Array>
          </mxGeometry>
        </mxCell>
        <mxCell id="vJ2KPYaT7CfqQhwvJW_M-79" value="Add data to Batch" style="whiteSpace=wrap;html=1;align=center;" parent="1" vertex="1">
          <mxGeometry x="266.9599999999998" y="3005.97" width="100" height="40" as="geometry" />
        </mxCell>
        <mxCell id="vJ2KPYaT7CfqQhwvJW_M-86" value="&lt;font style=&quot;font-size: 18px;&quot;&gt;+&lt;/font&gt;" style="edgeStyle=orthogonalEdgeStyle;rounded=0;orthogonalLoop=1;jettySize=auto;html=1;entryX=0.5;entryY=0;entryDx=0;entryDy=0;" parent="1" source="vJ2KPYaT7CfqQhwvJW_M-84" target="vJ2KPYaT7CfqQhwvJW_M-61" edge="1">
          <mxGeometry x="-0.28" relative="1" as="geometry">
            <mxPoint x="57.960000000000036" y="2756.9999999999995" as="targetPoint" />
            <mxPoint as="offset" />
          </mxGeometry>
        </mxCell>
        <mxCell id="vJ2KPYaT7CfqQhwvJW_M-88" value="&lt;font style=&quot;font-size: 18px;&quot;&gt;-&lt;/font&gt;" style="edgeStyle=orthogonalEdgeStyle;rounded=0;orthogonalLoop=1;jettySize=auto;html=1;entryX=0;entryY=0.5;entryDx=0;entryDy=0;" parent="1" source="vJ2KPYaT7CfqQhwvJW_M-84" target="vJ2KPYaT7CfqQhwvJW_M-60" edge="1">
          <mxGeometry relative="1" as="geometry" />
        </mxCell>
        <mxCell id="vJ2KPYaT7CfqQhwvJW_M-84" value="data files available?" style="rhombus;fillColor=#ffffc0;strokeColor=#ff0000;" parent="1" vertex="1">
          <mxGeometry x="-9.039999999999964" y="2675.9999999999995" width="134" height="55" as="geometry" />
        </mxCell>
        <mxCell id="vJ2KPYaT7CfqQhwvJW_M-89" value="remove chunk elements from Batch" style="whiteSpace=wrap;html=1;align=center;" parent="1" vertex="1">
          <mxGeometry x="-1.5399999999999636" y="2995.97" width="119" height="40" as="geometry" />
        </mxCell>
        <mxCell id="vJ2KPYaT7CfqQhwvJW_M-91" value="Unprocessed file left ?" style="rhombus;fillColor=#ffffc0;strokeColor=#ff0000;" parent="1" vertex="1">
          <mxGeometry x="237.4599999999998" y="2873.97" width="159" height="55" as="geometry" />
        </mxCell>
        <mxCell id="vJ2KPYaT7CfqQhwvJW_M-94" style="edgeStyle=orthogonalEdgeStyle;rounded=0;orthogonalLoop=1;jettySize=auto;html=1;entryX=0;entryY=0.5;entryDx=0;entryDy=0;exitX=1;exitY=0.5;exitDx=0;exitDy=0;" parent="1" source="vJ2KPYaT7CfqQhwvJW_M-91" target="vJ2KPYaT7CfqQhwvJW_M-96" edge="1">
          <mxGeometry relative="1" as="geometry">
            <mxPoint x="419.9599999999998" y="2892.97" as="sourcePoint" />
            <mxPoint x="501.9599999999998" y="2892.97" as="targetPoint" />
          </mxGeometry>
        </mxCell>
        <mxCell id="vJ2KPYaT7CfqQhwvJW_M-95" value="&lt;font style=&quot;font-size: 18px;&quot;&gt;-&lt;/font&gt;" style="edgeLabel;html=1;align=center;verticalAlign=middle;resizable=0;points=[];" parent="vJ2KPYaT7CfqQhwvJW_M-94" vertex="1" connectable="0">
          <mxGeometry x="0.253" relative="1" as="geometry">
            <mxPoint x="-10" y="-15" as="offset" />
          </mxGeometry>
        </mxCell>
        <mxCell id="vJ2KPYaT7CfqQhwvJW_M-96" value="Stop Criterion ON" style="ellipse;whiteSpace=wrap;html=1;align=center;fillColor=#f8cecc;strokeColor=#b85450;" parent="1" vertex="1">
          <mxGeometry x="494.9599999999998" y="2879.5399999999995" width="80" height="43.87" as="geometry" />
        </mxCell>
        <mxCell id="qjjQDpRlZ653jrpLIo1R-77" value="Data Batch" style="shape=table;startSize=26;container=1;collapsible=0;childLayout=tableLayout;strokeColor=#d79b00;fontSize=19;fontStyle=1;strokeWidth=1;fillColor=#ffe6cc;" parent="1" vertex="1">
          <mxGeometry x="-1168.1599999999999" y="1918.98" width="528" height="132.97833642818682" as="geometry" />
        </mxCell>
        <mxCell id="qjjQDpRlZ653jrpLIo1R-78" value="" style="shape=tableRow;horizontal=0;startSize=0;swimlaneHead=0;swimlaneBody=0;strokeColor=inherit;top=0;left=0;bottom=0;right=0;collapsible=0;dropTarget=0;fillColor=none;points=[[0,0.5],[1,0.5]];portConstraint=eastwest;fontSize=16;" parent="qjjQDpRlZ653jrpLIo1R-77" vertex="1">
          <mxGeometry y="26" width="528" height="23" as="geometry" />
        </mxCell>
        <mxCell id="qjjQDpRlZ653jrpLIo1R-79" value="&lt;b style=&quot;border-color: var(--border-color);&quot;&gt;&lt;font style=&quot;border-color: var(--border-color);&quot;&gt;Timestamp&lt;/font&gt;&lt;/b&gt;" style="shape=partialRectangle;html=1;whiteSpace=wrap;connectable=0;strokeColor=inherit;overflow=hidden;fillColor=none;top=0;left=0;bottom=0;right=0;pointerEvents=1;fontSize=16;" parent="qjjQDpRlZ653jrpLIo1R-78" vertex="1">
          <mxGeometry width="89" height="23" as="geometry">
            <mxRectangle width="89" height="23" as="alternateBounds" />
          </mxGeometry>
        </mxCell>
        <mxCell id="qjjQDpRlZ653jrpLIo1R-80" value="&lt;b&gt;Measurement&lt;/b&gt;" style="shape=partialRectangle;html=1;whiteSpace=wrap;connectable=0;strokeColor=inherit;overflow=hidden;fillColor=none;top=0;left=0;bottom=0;right=0;pointerEvents=1;fontSize=16;" parent="qjjQDpRlZ653jrpLIo1R-78" vertex="1">
          <mxGeometry x="89" width="267" height="23" as="geometry">
            <mxRectangle width="267" height="23" as="alternateBounds" />
          </mxGeometry>
        </mxCell>
        <mxCell id="qjjQDpRlZ653jrpLIo1R-102" value="&lt;b style=&quot;border-color: var(--border-color);&quot;&gt;&lt;font style=&quot;border-color: var(--border-color);&quot;&gt;&lt;font&gt;Location&lt;/font&gt;&lt;br&gt;&lt;/font&gt;&lt;/b&gt;" style="shape=partialRectangle;html=1;whiteSpace=wrap;connectable=0;strokeColor=inherit;overflow=hidden;fillColor=none;top=0;left=0;bottom=0;right=0;pointerEvents=1;fontSize=16;" parent="qjjQDpRlZ653jrpLIo1R-78" vertex="1">
          <mxGeometry x="356" width="172" height="23" as="geometry">
            <mxRectangle width="172" height="23" as="alternateBounds" />
          </mxGeometry>
        </mxCell>
        <mxCell id="qjjQDpRlZ653jrpLIo1R-82" value="" style="shape=tableRow;horizontal=0;startSize=0;swimlaneHead=0;swimlaneBody=0;strokeColor=inherit;top=0;left=0;bottom=0;right=0;collapsible=0;dropTarget=0;fillColor=none;points=[[0,0.5],[1,0.5]];portConstraint=eastwest;fontSize=16;" parent="qjjQDpRlZ653jrpLIo1R-77" vertex="1">
          <mxGeometry y="49" width="528" height="29" as="geometry" />
        </mxCell>
        <mxCell id="qjjQDpRlZ653jrpLIo1R-83" value="0" style="shape=partialRectangle;html=1;whiteSpace=wrap;connectable=0;strokeColor=inherit;overflow=hidden;fillColor=none;top=0;left=0;bottom=0;right=0;pointerEvents=1;fontSize=16;" parent="qjjQDpRlZ653jrpLIo1R-82" vertex="1">
          <mxGeometry width="89" height="29" as="geometry">
            <mxRectangle width="89" height="29" as="alternateBounds" />
          </mxGeometry>
        </mxCell>
        <mxCell id="qjjQDpRlZ653jrpLIo1R-84" value="sensor: &lt;b&gt;IMU,&amp;nbsp;&lt;/b&gt;values: [Z&lt;font style=&quot;font-size: 12px;&quot;&gt;1&lt;/font&gt;,..., Z&lt;font style=&quot;font-size: 12px;&quot;&gt;N&lt;/font&gt;]" style="shape=partialRectangle;html=1;whiteSpace=wrap;connectable=0;strokeColor=inherit;overflow=hidden;fillColor=none;top=0;left=0;bottom=0;right=0;pointerEvents=1;fontSize=16;" parent="qjjQDpRlZ653jrpLIo1R-82" vertex="1">
          <mxGeometry x="89" width="267" height="29" as="geometry">
            <mxRectangle width="267" height="29" as="alternateBounds" />
          </mxGeometry>
        </mxCell>
        <mxCell id="qjjQDpRlZ653jrpLIo1R-103" value="&lt;div&gt;position in file&amp;nbsp;&lt;/div&gt;" style="shape=partialRectangle;html=1;whiteSpace=wrap;connectable=0;strokeColor=inherit;overflow=hidden;fillColor=none;top=0;left=0;bottom=0;right=0;pointerEvents=1;fontSize=16;" parent="qjjQDpRlZ653jrpLIo1R-82" vertex="1">
          <mxGeometry x="356" width="172" height="29" as="geometry">
            <mxRectangle width="172" height="29" as="alternateBounds" />
          </mxGeometry>
        </mxCell>
        <mxCell id="qjjQDpRlZ653jrpLIo1R-86" value="" style="shape=tableRow;horizontal=0;startSize=0;swimlaneHead=0;swimlaneBody=0;strokeColor=inherit;top=0;left=0;bottom=0;right=0;collapsible=0;dropTarget=0;fillColor=none;points=[[0,0.5],[1,0.5]];portConstraint=eastwest;fontSize=16;" parent="qjjQDpRlZ653jrpLIo1R-77" vertex="1">
          <mxGeometry y="78" width="528" height="29" as="geometry" />
        </mxCell>
        <mxCell id="qjjQDpRlZ653jrpLIo1R-87" value="1" style="shape=partialRectangle;html=1;whiteSpace=wrap;connectable=0;strokeColor=inherit;overflow=hidden;fillColor=none;top=0;left=0;bottom=0;right=0;pointerEvents=1;fontSize=16;" parent="qjjQDpRlZ653jrpLIo1R-86" vertex="1">
          <mxGeometry width="89" height="29" as="geometry">
            <mxRectangle width="89" height="29" as="alternateBounds" />
          </mxGeometry>
        </mxCell>
        <mxCell id="qjjQDpRlZ653jrpLIo1R-88" value="sensor: &lt;b&gt;Camera,&amp;nbsp;&lt;/b&gt;values: [image]" style="shape=partialRectangle;html=1;whiteSpace=wrap;connectable=0;strokeColor=inherit;overflow=hidden;fillColor=none;top=0;left=0;bottom=0;right=0;pointerEvents=1;fontSize=16;" parent="qjjQDpRlZ653jrpLIo1R-86" vertex="1">
          <mxGeometry x="89" width="267" height="29" as="geometry">
            <mxRectangle width="267" height="29" as="alternateBounds" />
          </mxGeometry>
        </mxCell>
        <mxCell id="qjjQDpRlZ653jrpLIo1R-104" value="file in directory&amp;nbsp;" style="shape=partialRectangle;html=1;whiteSpace=wrap;connectable=0;strokeColor=inherit;overflow=hidden;fillColor=none;top=0;left=0;bottom=0;right=0;pointerEvents=1;fontSize=16;" parent="qjjQDpRlZ653jrpLIo1R-86" vertex="1">
          <mxGeometry x="356" width="172" height="29" as="geometry">
            <mxRectangle width="172" height="29" as="alternateBounds" />
          </mxGeometry>
        </mxCell>
        <mxCell id="qjjQDpRlZ653jrpLIo1R-90" style="shape=tableRow;horizontal=0;startSize=0;swimlaneHead=0;swimlaneBody=0;strokeColor=inherit;top=0;left=0;bottom=0;right=0;collapsible=0;dropTarget=0;fillColor=none;points=[[0,0.5],[1,0.5]];portConstraint=eastwest;fontSize=16;" parent="qjjQDpRlZ653jrpLIo1R-77" vertex="1">
          <mxGeometry y="107" width="528" height="26" as="geometry" />
        </mxCell>
        <mxCell id="qjjQDpRlZ653jrpLIo1R-91" value="2" style="shape=partialRectangle;html=1;whiteSpace=wrap;connectable=0;strokeColor=inherit;overflow=hidden;fillColor=none;top=0;left=0;bottom=0;right=0;pointerEvents=1;fontSize=16;" parent="qjjQDpRlZ653jrpLIo1R-90" vertex="1">
          <mxGeometry width="89" height="26" as="geometry">
            <mxRectangle width="89" height="26" as="alternateBounds" />
          </mxGeometry>
        </mxCell>
        <mxCell id="qjjQDpRlZ653jrpLIo1R-92" value="sensor: &lt;b&gt;LiDAR,&amp;nbsp;&lt;/b&gt;values: [Z&lt;font style=&quot;font-size: 12px;&quot;&gt;1&lt;/font&gt;,..., Z&lt;span style=&quot;font-size: 12px;&quot;&gt;K&lt;/span&gt;]" style="shape=partialRectangle;html=1;whiteSpace=wrap;connectable=0;strokeColor=inherit;overflow=hidden;fillColor=none;top=0;left=0;bottom=0;right=0;pointerEvents=1;fontSize=16;" parent="qjjQDpRlZ653jrpLIo1R-90" vertex="1">
          <mxGeometry x="89" width="267" height="26" as="geometry">
            <mxRectangle width="267" height="26" as="alternateBounds" />
          </mxGeometry>
        </mxCell>
        <mxCell id="qjjQDpRlZ653jrpLIo1R-105" value="link in database" style="shape=partialRectangle;html=1;whiteSpace=wrap;connectable=0;strokeColor=inherit;overflow=hidden;fillColor=none;top=0;left=0;bottom=0;right=0;pointerEvents=1;fontSize=16;" parent="qjjQDpRlZ653jrpLIo1R-90" vertex="1">
          <mxGeometry x="356" width="172" height="26" as="geometry">
            <mxRectangle width="172" height="26" as="alternateBounds" />
          </mxGeometry>
        </mxCell>
        <mxCell id="_LQi3goQdABTxO5C51Vf-125" value="" style="shape=curlyBracket;whiteSpace=wrap;html=1;rounded=1;labelPosition=left;verticalLabelPosition=middle;align=right;verticalAlign=middle;rotation=90;size=0.5;" parent="1" vertex="1">
          <mxGeometry x="-1376.87" y="962.88" width="53" height="563.25" as="geometry" />
        </mxCell>
        <mxCell id="O0jGP6CYuqxbWLlgePDv-43" style="edgeStyle=orthogonalEdgeStyle;rounded=0;orthogonalLoop=1;jettySize=auto;html=1;entryX=0.1;entryY=0.5;entryDx=0;entryDy=0;entryPerimeter=0;" parent="1" source="F70WmoociPYeX5_3-wgn-5" target="O0jGP6CYuqxbWLlgePDv-42" edge="1">
          <mxGeometry relative="1" as="geometry" />
        </mxCell>
        <mxCell id="F70WmoociPYeX5_3-wgn-5" value="DataReader(ABC)" style="swimlane;html=1;fontStyle=1;align=center;verticalAlign=top;childLayout=stackLayout;horizontal=1;startSize=26;horizontalStack=0;resizeParent=1;resizeLast=0;collapsible=1;marginBottom=0;swimlaneFillColor=#ffffff;rounded=0;shadow=0;comic=0;labelBackgroundColor=none;strokeWidth=1;fillColor=none;fontFamily=Verdana;fontSize=12" parent="1" vertex="1">
          <mxGeometry x="-671" y="1156" width="470" height="151" as="geometry" />
        </mxCell>
        <mxCell id="F70WmoociPYeX5_3-wgn-12" value="" style="line;html=1;strokeWidth=1;fillColor=none;align=left;verticalAlign=middle;spacingTop=-1;spacingLeft=3;spacingRight=3;rotatable=0;labelPosition=right;points=[];portConstraint=eastwest;" parent="F70WmoociPYeX5_3-wgn-5" vertex="1">
          <mxGeometry y="26" width="470" height="8" as="geometry" />
        </mxCell>
        <mxCell id="F70WmoociPYeX5_3-wgn-17" value="+ get_element(): -&amp;gt; Element/None" style="text;html=1;strokeColor=none;fillColor=none;align=left;verticalAlign=top;spacingLeft=4;spacingRight=4;whiteSpace=wrap;overflow=hidden;rotatable=0;points=[[0,0.5],[1,0.5]];portConstraint=eastwest;" parent="F70WmoociPYeX5_3-wgn-5" vertex="1">
          <mxGeometry y="34" width="470" height="26" as="geometry" />
        </mxCell>
        <mxCell id="O0jGP6CYuqxbWLlgePDv-35" value="+ get_element(element: Element): -&amp;gt; Element" style="text;html=1;strokeColor=none;fillColor=none;align=left;verticalAlign=top;spacingLeft=4;spacingRight=4;whiteSpace=wrap;overflow=hidden;rotatable=0;points=[[0,0.5],[1,0.5]];portConstraint=eastwest;" parent="F70WmoociPYeX5_3-wgn-5" vertex="1">
          <mxGeometry y="60" width="470" height="26" as="geometry" />
        </mxCell>
        <mxCell id="3qPN1cgmxC86ov4Y-5RF-15" value="+ get_element(sensor: Type[Sensor], timestamp: int | None = None): -&amp;gt; Element" style="text;html=1;strokeColor=none;fillColor=none;align=left;verticalAlign=top;spacingLeft=4;spacingRight=4;whiteSpace=wrap;overflow=hidden;rotatable=0;points=[[0,0.5],[1,0.5]];portConstraint=eastwest;" parent="F70WmoociPYeX5_3-wgn-5" vertex="1">
          <mxGeometry y="86" width="470" height="26" as="geometry" />
        </mxCell>
        <mxCell id="O0jGP6CYuqxbWLlgePDv-36" value="+ @staticmethod: is_file_valid(file_path: Path): -&amp;gt; bool" style="text;html=1;strokeColor=none;fillColor=none;align=left;verticalAlign=top;spacingLeft=4;spacingRight=4;whiteSpace=wrap;overflow=hidden;rotatable=0;points=[[0,0.5],[1,0.5]];portConstraint=eastwest;" parent="F70WmoociPYeX5_3-wgn-5" vertex="1">
          <mxGeometry y="112" width="470" height="26" as="geometry" />
        </mxCell>
        <mxCell id="O0jGP6CYuqxbWLlgePDv-37" style="edgeStyle=orthogonalEdgeStyle;rounded=0;orthogonalLoop=1;jettySize=auto;html=1;entryX=0.5;entryY=0;entryDx=0;entryDy=0;" parent="1" source="F70WmoociPYeX5_3-wgn-18" target="F70WmoociPYeX5_3-wgn-5" edge="1">
          <mxGeometry relative="1" as="geometry" />
        </mxCell>
        <mxCell id="F70WmoociPYeX5_3-wgn-18" value="&lt;font style=&quot;&quot;&gt;&lt;span style=&quot;font-size: 20px;&quot;&gt;DataReader(ABC)&lt;/span&gt;&lt;br&gt;&lt;font style=&quot;font-size: 16px;&quot;&gt;(abstract class for reading different datasets and creating elements)&lt;/font&gt;&lt;br&gt;&lt;/font&gt;" style="rounded=1;whiteSpace=wrap;html=1;" parent="1" vertex="1">
          <mxGeometry x="-554.62" y="993.5" width="239" height="119" as="geometry" />
        </mxCell>
        <mxCell id="ad2ZzV2Z2UHIi6W2xDRR-34" style="edgeStyle=orthogonalEdgeStyle;rounded=0;orthogonalLoop=1;jettySize=auto;html=1;entryX=0.5;entryY=0;entryDx=0;entryDy=0;" parent="1" source="O0jGP6CYuqxbWLlgePDv-25" target="O0jGP6CYuqxbWLlgePDv-26" edge="1">
          <mxGeometry relative="1" as="geometry" />
        </mxCell>
        <mxCell id="O0jGP6CYuqxbWLlgePDv-25" value="&lt;font style=&quot;&quot;&gt;&lt;span style=&quot;font-size: 20px;&quot;&gt;DataReaderFactory()&lt;/span&gt;&lt;br&gt;&lt;font style=&quot;font-size: 16px;&quot;&gt;(Factory to create a reader based on dataset type in config)&lt;/font&gt;&lt;br&gt;&lt;/font&gt;" style="rounded=1;whiteSpace=wrap;html=1;" parent="1" vertex="1">
          <mxGeometry x="-7.75" y="993.5" width="239" height="119" as="geometry" />
        </mxCell>
        <mxCell id="O0jGP6CYuqxbWLlgePDv-26" value="DataReaderFactory()" style="swimlane;html=1;fontStyle=1;align=center;verticalAlign=top;childLayout=stackLayout;horizontal=1;startSize=26;horizontalStack=0;resizeParent=1;resizeLast=0;collapsible=1;marginBottom=0;swimlaneFillColor=#ffffff;rounded=0;shadow=0;comic=0;labelBackgroundColor=none;strokeWidth=1;fillColor=none;fontFamily=Verdana;fontSize=12" parent="1" vertex="1">
          <mxGeometry x="-48" y="1149" width="319.5" height="111" as="geometry" />
        </mxCell>
        <mxCell id="O0jGP6CYuqxbWLlgePDv-31" value="+&amp;nbsp;data_reader: Type[DataReader]" style="text;html=1;strokeColor=none;fillColor=none;align=left;verticalAlign=top;spacingLeft=4;spacingRight=4;whiteSpace=wrap;overflow=hidden;rotatable=0;points=[[0,0.5],[1,0.5]];portConstraint=eastwest;" parent="O0jGP6CYuqxbWLlgePDv-26" vertex="1">
          <mxGeometry y="26" width="319.5" height="26" as="geometry" />
        </mxCell>
        <mxCell id="O0jGP6CYuqxbWLlgePDv-32" value="" style="line;html=1;strokeWidth=1;fillColor=none;align=left;verticalAlign=middle;spacingTop=-1;spacingLeft=3;spacingRight=3;rotatable=0;labelPosition=right;points=[];portConstraint=eastwest;" parent="O0jGP6CYuqxbWLlgePDv-26" vertex="1">
          <mxGeometry y="52" width="319.5" height="8" as="geometry" />
        </mxCell>
        <mxCell id="O0jGP6CYuqxbWLlgePDv-33" value="+ __init__(dataset_type: str): -&amp;gt; None" style="text;html=1;strokeColor=none;fillColor=none;align=left;verticalAlign=top;spacingLeft=4;spacingRight=4;whiteSpace=wrap;overflow=hidden;rotatable=0;points=[[0,0.5],[1,0.5]];portConstraint=eastwest;" parent="O0jGP6CYuqxbWLlgePDv-26" vertex="1">
          <mxGeometry y="60" width="319.5" height="40" as="geometry" />
        </mxCell>
        <mxCell id="O0jGP6CYuqxbWLlgePDv-38" value="&lt;font style=&quot;&quot;&gt;&lt;font style=&quot;font-size: 16px;&quot;&gt;KaistReader(DataReader)&lt;/font&gt;&lt;br&gt;&lt;/font&gt;" style="rounded=1;whiteSpace=wrap;html=1;" parent="1" vertex="1">
          <mxGeometry x="-536.37" y="1422.75" width="202.5" height="34.5" as="geometry" />
        </mxCell>
        <mxCell id="O0jGP6CYuqxbWLlgePDv-42" value="" style="shape=curlyBracket;whiteSpace=wrap;html=1;rounded=1;labelPosition=left;verticalLabelPosition=middle;align=right;verticalAlign=middle;rotation=90;" parent="1" vertex="1">
          <mxGeometry x="-449.37" y="1264" width="28.5" height="258" as="geometry" />
        </mxCell>
        <mxCell id="ad2ZzV2Z2UHIi6W2xDRR-2" style="edgeStyle=orthogonalEdgeStyle;rounded=0;orthogonalLoop=1;jettySize=auto;html=1;exitX=0.5;exitY=1;exitDx=0;exitDy=0;entryX=0.5;entryY=0;entryDx=0;entryDy=0;" parent="1" source="ad2ZzV2Z2UHIi6W2xDRR-3" target="ad2ZzV2Z2UHIi6W2xDRR-4" edge="1">
          <mxGeometry relative="1" as="geometry">
            <mxPoint x="-1512.37" y="2283.2" as="targetPoint" />
          </mxGeometry>
        </mxCell>
        <mxCell id="ad2ZzV2Z2UHIi6W2xDRR-3" value="&lt;font style=&quot;&quot;&gt;&lt;span style=&quot;font-size: 20px;&quot;&gt;Batch Factory&lt;/span&gt;&lt;br&gt;&lt;font style=&quot;font-size: 16px;&quot;&gt;(creates data batches from file(s) based on available RAM and Manager tasks)&lt;/font&gt;&lt;br&gt;&lt;/font&gt;" style="rounded=1;whiteSpace=wrap;html=1;" parent="1" vertex="1">
          <mxGeometry x="-1572.62" y="2125" width="160" height="119" as="geometry" />
        </mxCell>
        <mxCell id="ad2ZzV2Z2UHIi6W2xDRR-4" value="BatchFactory" style="swimlane;html=1;fontStyle=1;align=center;verticalAlign=top;childLayout=stackLayout;horizontal=1;startSize=26;horizontalStack=0;resizeParent=1;resizeLast=0;collapsible=1;marginBottom=0;swimlaneFillColor=#ffffff;rounded=0;shadow=0;comic=0;labelBackgroundColor=none;strokeWidth=1;fillColor=none;fontFamily=Verdana;fontSize=12" parent="1" vertex="1">
          <mxGeometry x="-1684" y="2293" width="382.75" height="297" as="geometry" />
        </mxCell>
        <mxCell id="ad2ZzV2Z2UHIi6W2xDRR-5" value="+ _memory_analyzer: MemoryAnalyzer(cfg.memory)" style="text;html=1;strokeColor=none;fillColor=none;align=left;verticalAlign=top;spacingLeft=4;spacingRight=4;whiteSpace=wrap;overflow=hidden;rotatable=0;points=[[0,0.5],[1,0.5]];portConstraint=eastwest;" parent="ad2ZzV2Z2UHIi6W2xDRR-4" vertex="1">
          <mxGeometry y="26" width="382.75" height="26" as="geometry" />
        </mxCell>
        <mxCell id="ad2ZzV2Z2UHIi6W2xDRR-6" value="+ _data_reader: Type[DataReader](cfg.dataset, cfg.regime)" style="text;html=1;strokeColor=none;fillColor=none;align=left;verticalAlign=top;spacingLeft=4;spacingRight=4;whiteSpace=wrap;overflow=hidden;rotatable=0;points=[[0,0.5],[1,0.5]];portConstraint=eastwest;" parent="ad2ZzV2Z2UHIi6W2xDRR-4" vertex="1">
          <mxGeometry y="52" width="382.75" height="26" as="geometry" />
        </mxCell>
        <mxCell id="6h01rewfft6A5AupVk-a-10" value="+ _break_point: StoppingCriterionSingleton&amp;nbsp;" style="text;html=1;strokeColor=none;fillColor=none;align=left;verticalAlign=top;spacingLeft=4;spacingRight=4;whiteSpace=wrap;overflow=hidden;rotatable=0;points=[[0,0.5],[1,0.5]];portConstraint=eastwest;" parent="ad2ZzV2Z2UHIi6W2xDRR-4" vertex="1">
          <mxGeometry y="78" width="382.75" height="26" as="geometry" />
        </mxCell>
        <mxCell id="6h01rewfft6A5AupVk-a-9" value="+ _batch: DataBatch()&amp;nbsp;" style="text;html=1;strokeColor=none;fillColor=none;align=left;verticalAlign=top;spacingLeft=4;spacingRight=4;whiteSpace=wrap;overflow=hidden;rotatable=0;points=[[0,0.5],[1,0.5]];portConstraint=eastwest;" parent="ad2ZzV2Z2UHIi6W2xDRR-4" vertex="1">
          <mxGeometry y="104" width="382.75" height="26" as="geometry" />
        </mxCell>
        <mxCell id="ad2ZzV2Z2UHIi6W2xDRR-7" value="+ __factory: DataReaderFactory(cfg.dataset_type)&amp;nbsp;" style="text;html=1;strokeColor=none;fillColor=none;align=left;verticalAlign=top;spacingLeft=4;spacingRight=4;whiteSpace=wrap;overflow=hidden;rotatable=0;points=[[0,0.5],[1,0.5]];portConstraint=eastwest;" parent="ad2ZzV2Z2UHIi6W2xDRR-4" vertex="1">
          <mxGeometry y="130" width="382.75" height="26" as="geometry" />
        </mxCell>
        <mxCell id="ad2ZzV2Z2UHIi6W2xDRR-8" value="" style="line;html=1;strokeWidth=1;fillColor=none;align=left;verticalAlign=middle;spacingTop=-1;spacingLeft=3;spacingRight=3;rotatable=0;labelPosition=right;points=[];portConstraint=eastwest;" parent="ad2ZzV2Z2UHIi6W2xDRR-4" vertex="1">
          <mxGeometry y="156" width="382.75" height="8" as="geometry" />
        </mxCell>
        <mxCell id="ad2ZzV2Z2UHIi6W2xDRR-9" value="+ batch: DataBatch() (@ property)" style="text;html=1;strokeColor=none;fillColor=none;align=left;verticalAlign=top;spacingLeft=4;spacingRight=4;whiteSpace=wrap;overflow=hidden;rotatable=0;points=[[0,0.5],[1,0.5]];portConstraint=eastwest;" parent="ad2ZzV2Z2UHIi6W2xDRR-4" vertex="1">
          <mxGeometry y="164" width="382.75" height="26" as="geometry" />
        </mxCell>
        <mxCell id="ad2ZzV2Z2UHIi6W2xDRR-10" value="+ create_batch(): -&amp;gt; DataBatch" style="text;html=1;strokeColor=none;fillColor=none;align=left;verticalAlign=top;spacingLeft=4;spacingRight=4;whiteSpace=wrap;overflow=hidden;rotatable=0;points=[[0,0.5],[1,0.5]];portConstraint=eastwest;" parent="ad2ZzV2Z2UHIi6W2xDRR-4" vertex="1">
          <mxGeometry y="190" width="382.75" height="26" as="geometry" />
        </mxCell>
        <mxCell id="6h01rewfft6A5AupVk-a-11" value="+ create_batch(deque[Element]): -&amp;gt; DataBatch" style="text;html=1;strokeColor=none;fillColor=none;align=left;verticalAlign=top;spacingLeft=4;spacingRight=4;whiteSpace=wrap;overflow=hidden;rotatable=0;points=[[0,0.5],[1,0.5]];portConstraint=eastwest;" parent="ad2ZzV2Z2UHIi6W2xDRR-4" vertex="1">
          <mxGeometry y="216" width="382.75" height="26" as="geometry" />
        </mxCell>
        <mxCell id="ad2ZzV2Z2UHIi6W2xDRR-11" value="+ create_batch(set[PeriodicData]): -&amp;gt; DataBatch" style="text;html=1;strokeColor=none;fillColor=none;align=left;verticalAlign=top;spacingLeft=4;spacingRight=4;whiteSpace=wrap;overflow=hidden;rotatable=0;points=[[0,0.5],[1,0.5]];portConstraint=eastwest;" parent="ad2ZzV2Z2UHIi6W2xDRR-4" vertex="1">
          <mxGeometry y="242" width="382.75" height="26" as="geometry" />
        </mxCell>
        <mxCell id="ad2ZzV2Z2UHIi6W2xDRR-13" value="+ save_batch: -&amp;gt; None" style="text;html=1;strokeColor=none;fillColor=none;align=left;verticalAlign=top;spacingLeft=4;spacingRight=4;whiteSpace=wrap;overflow=hidden;rotatable=0;points=[[0,0.5],[1,0.5]];portConstraint=eastwest;" parent="ad2ZzV2Z2UHIi6W2xDRR-4" vertex="1">
          <mxGeometry y="268" width="382.75" height="26" as="geometry" />
        </mxCell>
        <mxCell id="ad2ZzV2Z2UHIi6W2xDRR-26" style="edgeStyle=orthogonalEdgeStyle;rounded=0;orthogonalLoop=1;jettySize=auto;html=1;entryX=0.5;entryY=0;entryDx=0;entryDy=0;" parent="1" source="ad2ZzV2Z2UHIi6W2xDRR-15" target="ad2ZzV2Z2UHIi6W2xDRR-16" edge="1">
          <mxGeometry relative="1" as="geometry" />
        </mxCell>
        <mxCell id="ad2ZzV2Z2UHIi6W2xDRR-15" value="&lt;font style=&quot;&quot;&gt;&lt;span style=&quot;font-size: 20px;&quot;&gt;Data Batch&lt;/span&gt;&lt;br&gt;&lt;/font&gt;" style="rounded=1;whiteSpace=wrap;html=1;" parent="1" vertex="1">
          <mxGeometry x="-795.16" y="2173" width="155" height="45" as="geometry" />
        </mxCell>
        <mxCell id="ad2ZzV2Z2UHIi6W2xDRR-16" value="DataBatch" style="swimlane;html=1;fontStyle=1;align=center;verticalAlign=top;childLayout=stackLayout;horizontal=1;startSize=26;horizontalStack=0;resizeParent=1;resizeLast=0;collapsible=1;marginBottom=0;swimlaneFillColor=#ffffff;rounded=0;shadow=0;comic=0;labelBackgroundColor=none;strokeWidth=1;fillColor=none;fontFamily=Verdana;fontSize=12" parent="1" vertex="1">
          <mxGeometry x="-876.41" y="2254" width="317.5" height="195" as="geometry" />
        </mxCell>
        <mxCell id="ad2ZzV2Z2UHIi6W2xDRR-18" value="+ __data_deque: deque[Element]" style="text;html=1;strokeColor=none;fillColor=none;align=left;verticalAlign=top;spacingLeft=4;spacingRight=4;whiteSpace=wrap;overflow=hidden;rotatable=0;points=[[0,0.5],[1,0.5]];portConstraint=eastwest;" parent="ad2ZzV2Z2UHIi6W2xDRR-16" vertex="1">
          <mxGeometry y="26" width="317.5" height="26" as="geometry" />
        </mxCell>
        <mxCell id="6h01rewfft6A5AupVk-a-13" value="+ __data_set: set[Element]" style="text;html=1;strokeColor=none;fillColor=none;align=left;verticalAlign=top;spacingLeft=4;spacingRight=4;whiteSpace=wrap;overflow=hidden;rotatable=0;points=[[0,0.5],[1,0.5]];portConstraint=eastwest;" parent="ad2ZzV2Z2UHIi6W2xDRR-16" vertex="1">
          <mxGeometry y="52" width="317.5" height="26" as="geometry" />
        </mxCell>
        <mxCell id="6h01rewfft6A5AupVk-a-12" value="+ data: deque[Element] (@ property)&amp;nbsp;" style="text;html=1;strokeColor=none;fillColor=none;align=left;verticalAlign=top;spacingLeft=4;spacingRight=4;whiteSpace=wrap;overflow=hidden;rotatable=0;points=[[0,0.5],[1,0.5]];portConstraint=eastwest;" parent="ad2ZzV2Z2UHIi6W2xDRR-16" vertex="1">
          <mxGeometry y="78" width="317.5" height="26" as="geometry" />
        </mxCell>
        <mxCell id="ad2ZzV2Z2UHIi6W2xDRR-27" value="+ size_bytes: int() (@ property)&amp;nbsp;" style="text;html=1;strokeColor=none;fillColor=none;align=left;verticalAlign=top;spacingLeft=4;spacingRight=4;whiteSpace=wrap;overflow=hidden;rotatable=0;points=[[0,0.5],[1,0.5]];portConstraint=eastwest;" parent="ad2ZzV2Z2UHIi6W2xDRR-16" vertex="1">
          <mxGeometry y="104" width="317.5" height="26" as="geometry" />
        </mxCell>
        <mxCell id="ad2ZzV2Z2UHIi6W2xDRR-20" value="" style="line;html=1;strokeWidth=1;fillColor=none;align=left;verticalAlign=middle;spacingTop=-1;spacingLeft=3;spacingRight=3;rotatable=0;labelPosition=right;points=[];portConstraint=eastwest;" parent="ad2ZzV2Z2UHIi6W2xDRR-16" vertex="1">
          <mxGeometry y="130" width="317.5" height="8" as="geometry" />
        </mxCell>
        <mxCell id="ad2ZzV2Z2UHIi6W2xDRR-28" value="+ add(Element) -&amp;gt; None" style="text;html=1;strokeColor=none;fillColor=none;align=left;verticalAlign=top;spacingLeft=4;spacingRight=4;whiteSpace=wrap;overflow=hidden;rotatable=0;points=[[0,0.5],[1,0.5]];portConstraint=eastwest;" parent="ad2ZzV2Z2UHIi6W2xDRR-16" vertex="1">
          <mxGeometry y="138" width="317.5" height="26" as="geometry" />
        </mxCell>
        <mxCell id="ad2ZzV2Z2UHIi6W2xDRR-21" value="+ sort() -&amp;gt; None" style="text;html=1;strokeColor=none;fillColor=none;align=left;verticalAlign=top;spacingLeft=4;spacingRight=4;whiteSpace=wrap;overflow=hidden;rotatable=0;points=[[0,0.5],[1,0.5]];portConstraint=eastwest;" parent="ad2ZzV2Z2UHIi6W2xDRR-16" vertex="1">
          <mxGeometry y="164" width="317.5" height="26" as="geometry" />
        </mxCell>
        <mxCell id="ad2ZzV2Z2UHIi6W2xDRR-29" value="&lt;font style=&quot;&quot;&gt;&lt;font style=&quot;font-size: 16px;&quot;&gt;Ros1Reader(DataReader)&lt;/font&gt;&lt;br&gt;&lt;/font&gt;" style="rounded=1;whiteSpace=wrap;html=1;" parent="1" vertex="1">
          <mxGeometry x="-538.12" y="1484" width="202.5" height="34.5" as="geometry" />
        </mxCell>
        <mxCell id="ad2ZzV2Z2UHIi6W2xDRR-30" value="&lt;font style=&quot;&quot;&gt;&lt;font style=&quot;font-size: 16px;&quot;&gt;AnyReader(DataReader)&lt;/font&gt;&lt;br&gt;&lt;/font&gt;" style="rounded=1;whiteSpace=wrap;html=1;" parent="1" vertex="1">
          <mxGeometry x="-536.37" y="1546" width="202.5" height="34.5" as="geometry" />
        </mxCell>
        <mxCell id="6h01rewfft6A5AupVk-a-6" style="edgeStyle=orthogonalEdgeStyle;rounded=0;orthogonalLoop=1;jettySize=auto;html=1;entryX=0;entryY=0.5;entryDx=0;entryDy=0;" parent="1" source="6h01rewfft6A5AupVk-a-1" target="DAQNkXUYjtsXxi17LZvh-14" edge="1">
          <mxGeometry relative="1" as="geometry" />
        </mxCell>
        <mxCell id="6h01rewfft6A5AupVk-a-1" value="&lt;font style=&quot;font-size: 22px;&quot;&gt;Data Batch&lt;/font&gt;" style="swimlane;fontStyle=0;childLayout=stackLayout;horizontal=1;startSize=30;horizontalStack=0;resizeParent=1;resizeParentMax=0;resizeLast=0;collapsible=1;marginBottom=0;whiteSpace=wrap;html=1;fillColor=none;" parent="1" vertex="1">
          <mxGeometry x="-1471" y="1283.5" width="215.25" height="120" as="geometry" />
        </mxCell>
        <mxCell id="6h01rewfft6A5AupVk-a-2" value="&lt;font style=&quot;font-size: 22px;&quot;&gt;Element 1&lt;/font&gt;" style="text;strokeColor=none;fillColor=default;align=left;verticalAlign=middle;spacingLeft=4;spacingRight=4;overflow=hidden;points=[[0,0.5],[1,0.5]];portConstraint=eastwest;rotatable=0;whiteSpace=wrap;html=1;" parent="6h01rewfft6A5AupVk-a-1" vertex="1">
          <mxGeometry y="30" width="215.25" height="30" as="geometry" />
        </mxCell>
        <mxCell id="6h01rewfft6A5AupVk-a-3" value="&lt;span style=&quot;font-size: 22px;&quot;&gt;Element 2&lt;/span&gt;" style="text;strokeColor=none;fillColor=default;align=left;verticalAlign=middle;spacingLeft=4;spacingRight=4;overflow=hidden;points=[[0,0.5],[1,0.5]];portConstraint=eastwest;rotatable=0;whiteSpace=wrap;html=1;" parent="6h01rewfft6A5AupVk-a-1" vertex="1">
          <mxGeometry y="60" width="215.25" height="30" as="geometry" />
        </mxCell>
        <mxCell id="6h01rewfft6A5AupVk-a-4" value="&lt;span style=&quot;font-size: 22px;&quot;&gt;Element K&lt;/span&gt;" style="text;strokeColor=none;fillColor=default;align=left;verticalAlign=middle;spacingLeft=4;spacingRight=4;overflow=hidden;points=[[0,0.5],[1,0.5]];portConstraint=eastwest;rotatable=0;whiteSpace=wrap;html=1;" parent="6h01rewfft6A5AupVk-a-1" vertex="1">
          <mxGeometry y="90" width="215.25" height="30" as="geometry" />
        </mxCell>
        <mxCell id="3qPN1cgmxC86ov4Y-5RF-1" style="edgeStyle=orthogonalEdgeStyle;rounded=0;orthogonalLoop=1;jettySize=auto;html=1;exitX=0.5;exitY=1;exitDx=0;exitDy=0;entryX=0.5;entryY=0;entryDx=0;entryDy=0;" parent="1" source="3qPN1cgmxC86ov4Y-5RF-2" target="3qPN1cgmxC86ov4Y-5RF-3" edge="1">
          <mxGeometry relative="1" as="geometry">
            <mxPoint x="45.63000000000011" y="2246.2" as="targetPoint" />
          </mxGeometry>
        </mxCell>
        <mxCell id="3qPN1cgmxC86ov4Y-5RF-2" value="&lt;font style=&quot;&quot;&gt;&lt;span style=&quot;font-size: 20px;&quot;&gt;Batch Factory&lt;/span&gt;&lt;br&gt;&lt;font style=&quot;font-size: 16px;&quot;&gt;(creates data batches from file(s) based on available RAM and Manager tasks)&lt;/font&gt;&lt;br&gt;&lt;/font&gt;" style="rounded=1;whiteSpace=wrap;html=1;" parent="1" vertex="1">
          <mxGeometry x="-14.61999999999989" y="2088" width="160" height="119" as="geometry" />
        </mxCell>
        <mxCell id="3qPN1cgmxC86ov4Y-5RF-3" value="BatchFactory" style="swimlane;html=1;fontStyle=1;align=center;verticalAlign=top;childLayout=stackLayout;horizontal=1;startSize=26;horizontalStack=0;resizeParent=1;resizeLast=0;collapsible=1;marginBottom=0;swimlaneFillColor=#ffffff;rounded=0;shadow=0;comic=0;labelBackgroundColor=none;strokeWidth=1;fillColor=none;fontFamily=Verdana;fontSize=12" parent="1" vertex="1">
          <mxGeometry x="-126" y="2256" width="382.75" height="297" as="geometry" />
        </mxCell>
        <mxCell id="3qPN1cgmxC86ov4Y-5RF-4" value="+ _memory_analyzer: MemoryAnalyzer(cfg.memory)" style="text;html=1;strokeColor=none;fillColor=none;align=left;verticalAlign=top;spacingLeft=4;spacingRight=4;whiteSpace=wrap;overflow=hidden;rotatable=0;points=[[0,0.5],[1,0.5]];portConstraint=eastwest;" parent="3qPN1cgmxC86ov4Y-5RF-3" vertex="1">
          <mxGeometry y="26" width="382.75" height="26" as="geometry" />
        </mxCell>
        <mxCell id="3qPN1cgmxC86ov4Y-5RF-5" value="+ _data_reader: Type[DataReader](cfg.dataset, cfg.regime)" style="text;html=1;strokeColor=none;fillColor=none;align=left;verticalAlign=top;spacingLeft=4;spacingRight=4;whiteSpace=wrap;overflow=hidden;rotatable=0;points=[[0,0.5],[1,0.5]];portConstraint=eastwest;" parent="3qPN1cgmxC86ov4Y-5RF-3" vertex="1">
          <mxGeometry y="52" width="382.75" height="26" as="geometry" />
        </mxCell>
        <mxCell id="3qPN1cgmxC86ov4Y-5RF-6" value="+ _break_point: StoppingCriterionSingleton&amp;nbsp;" style="text;html=1;strokeColor=none;fillColor=none;align=left;verticalAlign=top;spacingLeft=4;spacingRight=4;whiteSpace=wrap;overflow=hidden;rotatable=0;points=[[0,0.5],[1,0.5]];portConstraint=eastwest;" parent="3qPN1cgmxC86ov4Y-5RF-3" vertex="1">
          <mxGeometry y="78" width="382.75" height="26" as="geometry" />
        </mxCell>
        <mxCell id="3qPN1cgmxC86ov4Y-5RF-7" value="+ _batch: DataBatch()&amp;nbsp;" style="text;html=1;strokeColor=none;fillColor=none;align=left;verticalAlign=top;spacingLeft=4;spacingRight=4;whiteSpace=wrap;overflow=hidden;rotatable=0;points=[[0,0.5],[1,0.5]];portConstraint=eastwest;" parent="3qPN1cgmxC86ov4Y-5RF-3" vertex="1">
          <mxGeometry y="104" width="382.75" height="26" as="geometry" />
        </mxCell>
        <mxCell id="3qPN1cgmxC86ov4Y-5RF-8" value="+ __factory: DataReaderFactory(cfg.dataset_type)&amp;nbsp;" style="text;html=1;strokeColor=none;fillColor=none;align=left;verticalAlign=top;spacingLeft=4;spacingRight=4;whiteSpace=wrap;overflow=hidden;rotatable=0;points=[[0,0.5],[1,0.5]];portConstraint=eastwest;" parent="3qPN1cgmxC86ov4Y-5RF-3" vertex="1">
          <mxGeometry y="130" width="382.75" height="26" as="geometry" />
        </mxCell>
        <mxCell id="3qPN1cgmxC86ov4Y-5RF-9" value="" style="line;html=1;strokeWidth=1;fillColor=none;align=left;verticalAlign=middle;spacingTop=-1;spacingLeft=3;spacingRight=3;rotatable=0;labelPosition=right;points=[];portConstraint=eastwest;" parent="3qPN1cgmxC86ov4Y-5RF-3" vertex="1">
          <mxGeometry y="156" width="382.75" height="8" as="geometry" />
        </mxCell>
        <mxCell id="3qPN1cgmxC86ov4Y-5RF-10" value="+ batch: DataBatch() (@ property)" style="text;html=1;strokeColor=none;fillColor=none;align=left;verticalAlign=top;spacingLeft=4;spacingRight=4;whiteSpace=wrap;overflow=hidden;rotatable=0;points=[[0,0.5],[1,0.5]];portConstraint=eastwest;" parent="3qPN1cgmxC86ov4Y-5RF-3" vertex="1">
          <mxGeometry y="164" width="382.75" height="26" as="geometry" />
        </mxCell>
        <mxCell id="3qPN1cgmxC86ov4Y-5RF-11" value="+ create_batch(): -&amp;gt; DataBatch" style="text;html=1;strokeColor=none;fillColor=none;align=left;verticalAlign=top;spacingLeft=4;spacingRight=4;whiteSpace=wrap;overflow=hidden;rotatable=0;points=[[0,0.5],[1,0.5]];portConstraint=eastwest;" parent="3qPN1cgmxC86ov4Y-5RF-3" vertex="1">
          <mxGeometry y="190" width="382.75" height="26" as="geometry" />
        </mxCell>
        <mxCell id="3qPN1cgmxC86ov4Y-5RF-12" value="+ create_batch(deque[Element]): -&amp;gt; DataBatch" style="text;html=1;strokeColor=none;fillColor=none;align=left;verticalAlign=top;spacingLeft=4;spacingRight=4;whiteSpace=wrap;overflow=hidden;rotatable=0;points=[[0,0.5],[1,0.5]];portConstraint=eastwest;" parent="3qPN1cgmxC86ov4Y-5RF-3" vertex="1">
          <mxGeometry y="216" width="382.75" height="26" as="geometry" />
        </mxCell>
        <mxCell id="3qPN1cgmxC86ov4Y-5RF-13" value="+ create_batch(set[PeriodicData]): -&amp;gt; DataBatch" style="text;html=1;strokeColor=none;fillColor=none;align=left;verticalAlign=top;spacingLeft=4;spacingRight=4;whiteSpace=wrap;overflow=hidden;rotatable=0;points=[[0,0.5],[1,0.5]];portConstraint=eastwest;" parent="3qPN1cgmxC86ov4Y-5RF-3" vertex="1">
          <mxGeometry y="242" width="382.75" height="26" as="geometry" />
        </mxCell>
        <mxCell id="3qPN1cgmxC86ov4Y-5RF-14" value="+ save_batch: -&amp;gt; None" style="text;html=1;strokeColor=none;fillColor=none;align=left;verticalAlign=top;spacingLeft=4;spacingRight=4;whiteSpace=wrap;overflow=hidden;rotatable=0;points=[[0,0.5],[1,0.5]];portConstraint=eastwest;" parent="3qPN1cgmxC86ov4Y-5RF-3" vertex="1">
          <mxGeometry y="268" width="382.75" height="26" as="geometry" />
        </mxCell>
        <mxCell id="1_HDEgICbs1vs9nw1-ZA-1" value="" style="whiteSpace=wrap;html=1;shape=mxgraph.basic.document;fillColor=#fff2cc;strokeColor=#d6b656;" parent="1" vertex="1">
          <mxGeometry x="-662.4799999999999" y="1972.98" width="15" height="19" as="geometry" />
        </mxCell>
        <mxCell id="1_HDEgICbs1vs9nw1-ZA-2" value="" style="sketch=0;outlineConnect=0;fontColor=#232F3E;gradientColor=none;fillColor=#232F3D;strokeColor=none;dashed=0;verticalLabelPosition=bottom;verticalAlign=top;align=center;html=1;fontSize=12;fontStyle=0;aspect=fixed;pointerEvents=1;shape=mxgraph.aws4.folder;" parent="1" vertex="1">
          <mxGeometry x="-665.4699999999999" y="2000.98" width="22.96" height="20.9" as="geometry" />
        </mxCell>
        <mxCell id="1_HDEgICbs1vs9nw1-ZA-3" value="" style="html=1;verticalLabelPosition=bottom;align=center;labelBackgroundColor=#ffffff;verticalAlign=top;strokeWidth=2;strokeColor=#0080F0;shadow=0;dashed=0;shape=mxgraph.ios7.icons.data;" parent="1" vertex="1">
          <mxGeometry x="-662.48" y="2026.98" width="16.98" height="23.24" as="geometry" />
        </mxCell>
        <mxCell id="8fBNi7avspoj2HvoHtae-2" value="&lt;font style=&quot;font-size: 16px;&quot;&gt;Kaist Urban&amp;nbsp;&lt;/font&gt;&lt;div&gt;&lt;font style=&quot;font-size: 16px;&quot;&gt;reader&lt;/font&gt;&lt;/div&gt;" style="rounded=1;whiteSpace=wrap;html=1;fillColor=#ffe6cc;strokeColor=#d79b00;" parent="1" vertex="1">
          <mxGeometry x="-1106.16" y="1831.98" width="91" height="43.03" as="geometry" />
        </mxCell>
        <mxCell id="8fBNi7avspoj2HvoHtae-3" value="&lt;font style=&quot;font-size: 16px;&quot;&gt;ROS2&lt;/font&gt;&lt;div&gt;&lt;font style=&quot;font-size: 16px;&quot;&gt;reader&lt;/font&gt;&lt;/div&gt;" style="rounded=1;whiteSpace=wrap;html=1;fillColor=#ffe6cc;strokeColor=#d79b00;" parent="1" vertex="1">
          <mxGeometry x="-997.3199999999999" y="1831.98" width="86" height="43.03" as="geometry" />
        </mxCell>
        <mxCell id="8fBNi7avspoj2HvoHtae-4" value="&lt;font style=&quot;font-size: 16px;&quot;&gt;TUM VIE&lt;br&gt;&lt;/font&gt;&lt;div&gt;&lt;font style=&quot;font-size: 16px;&quot;&gt;reader&lt;/font&gt;&lt;/div&gt;" style="rounded=1;whiteSpace=wrap;html=1;fillColor=#ffe6cc;strokeColor=#d79b00;" parent="1" vertex="1">
          <mxGeometry x="-893.15" y="1831.92" width="86" height="43.03" as="geometry" />
        </mxCell>
        <mxCell id="8fBNi7avspoj2HvoHtae-5" value="&lt;font style=&quot;font-size: 16px;&quot;&gt;....&lt;br&gt;&lt;/font&gt;&lt;div&gt;&lt;font style=&quot;font-size: 16px;&quot;&gt;reader&lt;/font&gt;&lt;/div&gt;" style="rounded=1;whiteSpace=wrap;html=1;fillColor=#ffe6cc;strokeColor=#d79b00;" parent="1" vertex="1">
          <mxGeometry x="-791.16" y="1831.98" width="86" height="43.03" as="geometry" />
        </mxCell>
        <mxCell id="8fBNi7avspoj2HvoHtae-6" value="" style="shape=curlyBracket;whiteSpace=wrap;html=1;rounded=1;labelPosition=left;verticalLabelPosition=middle;align=right;verticalAlign=middle;rotation=-90;" parent="1" vertex="1">
          <mxGeometry x="-916.15" y="1677.98" width="23" height="410.02" as="geometry" />
        </mxCell>
        <mxCell id="8fBNi7avspoj2HvoHtae-8" value="" style="endArrow=classic;html=1;rounded=0;exitX=0.1;exitY=0.5;exitDx=0;exitDy=0;exitPerimeter=0;entryX=0.5;entryY=0;entryDx=0;entryDy=0;strokeWidth=2;" parent="1" source="8fBNi7avspoj2HvoHtae-6" target="qjjQDpRlZ653jrpLIo1R-77" edge="1">
          <mxGeometry width="50" height="50" relative="1" as="geometry">
            <mxPoint x="-921.16" y="1920.98" as="sourcePoint" />
            <mxPoint x="-871.16" y="1870.98" as="targetPoint" />
          </mxGeometry>
        </mxCell>
        <mxCell id="JdCWdgSExFU_v7JM7AU1-2" value="" style="html=1;outlineConnect=0;whiteSpace=wrap;fillColor=#F5DEAA;shape=mxgraph.archimate3.valueStream;" vertex="1" parent="1">
          <mxGeometry x="-357.5" y="1778" width="33" height="21" as="geometry" />
        </mxCell>
        <mxCell id="JdCWdgSExFU_v7JM7AU1-11" value="" style="endArrow=classic;html=1;rounded=0;" edge="1" parent="1">
          <mxGeometry relative="1" as="geometry">
            <mxPoint x="-241" y="1792.97" as="sourcePoint" />
            <mxPoint x="-81" y="1792.97" as="targetPoint" />
          </mxGeometry>
        </mxCell>
        <mxCell id="JdCWdgSExFU_v7JM7AU1-13" value="&lt;font style=&quot;font-size: 18px;&quot;&gt;Start&lt;/font&gt;" style="edgeLabel;resizable=0;html=1;;align=left;verticalAlign=bottom;" connectable="0" vertex="1" parent="JdCWdgSExFU_v7JM7AU1-11">
          <mxGeometry x="-1" relative="1" as="geometry">
            <mxPoint x="-20" y="-4" as="offset" />
          </mxGeometry>
        </mxCell>
        <mxCell id="JdCWdgSExFU_v7JM7AU1-14" value="&lt;font style=&quot;font-size: 18px;&quot;&gt;Stop&lt;/font&gt;" style="edgeLabel;resizable=0;html=1;;align=right;verticalAlign=bottom;" connectable="0" vertex="1" parent="JdCWdgSExFU_v7JM7AU1-11">
          <mxGeometry x="1" relative="1" as="geometry">
            <mxPoint x="19" y="-5" as="offset" />
          </mxGeometry>
        </mxCell>
        <mxCell id="JdCWdgSExFU_v7JM7AU1-15" value="&lt;font style=&quot;font-size: 18px;&quot;&gt;&lt;b&gt;Data input&amp;nbsp;&lt;/b&gt;&lt;/font&gt;&lt;b style=&quot;font-size: 18px; background-color: transparent; color: light-dark(rgb(0, 0, 0), rgb(255, 255, 255));&quot;&gt;modes:&lt;/b&gt;" style="text;html=1;align=center;verticalAlign=middle;whiteSpace=wrap;rounded=0;" vertex="1" parent="1">
          <mxGeometry x="-576" y="1762" width="162" height="30.97" as="geometry" />
        </mxCell>
        <mxCell id="JdCWdgSExFU_v7JM7AU1-29" value="&lt;b&gt;&lt;font style=&quot;font-size: 18px;&quot;&gt;Required methods:&lt;/font&gt;&lt;/b&gt;" style="text;html=1;align=center;verticalAlign=middle;whiteSpace=wrap;rounded=0;" vertex="1" parent="1">
          <mxGeometry x="-576" y="1674" width="167" height="30" as="geometry" />
        </mxCell>
        <mxCell id="JdCWdgSExFU_v7JM7AU1-31" value="&lt;ol&gt;&lt;li&gt;&lt;font style=&quot;font-size: 16px;&quot;&gt;get_next_element() -&amp;gt; &lt;b&gt;Element&lt;/b&gt;&lt;/font&gt;&lt;/li&gt;&lt;li&gt;&lt;font style=&quot;font-size: 16px;&quot;&gt;get_next_element(&lt;i&gt;sensor: &lt;b&gt;Sensor&lt;/b&gt;&lt;/i&gt;) -&amp;gt; &lt;b&gt;Element&lt;/b&gt;&lt;/font&gt;&lt;/li&gt;&lt;li&gt;&lt;font style=&quot;font-size: 16px;&quot;&gt;get_element(&lt;i&gt;element: &lt;/i&gt;&lt;b&gt;&lt;i&gt;Element&lt;/i&gt;&lt;/b&gt;) -&amp;gt; &lt;b&gt;Element&lt;/b&gt;&lt;/font&gt;&lt;/li&gt;&lt;/ol&gt;" style="text;strokeColor=none;fillColor=none;html=1;whiteSpace=wrap;verticalAlign=middle;overflow=hidden;" vertex="1" parent="1">
          <mxGeometry x="-434" y="1677.98" width="391" height="76" as="geometry" />
        </mxCell>
        <mxCell id="JdCWdgSExFU_v7JM7AU1-33" value="" style="shape=ellipse;fillColor=#0065FF;strokeColor=none;html=1;sketch=0;" vertex="1" parent="1">
          <mxGeometry x="-248" y="1787" width="10" height="10" as="geometry" />
        </mxCell>
        <mxCell id="JdCWdgSExFU_v7JM7AU1-38" value="" style="shape=ellipse;fillColor=#0065FF;strokeColor=none;html=1;sketch=0;" vertex="1" parent="1">
          <mxGeometry x="-83" y="1787" width="10" height="10" as="geometry" />
        </mxCell>
        <mxCell id="JdCWdgSExFU_v7JM7AU1-40" value="&lt;font style=&quot;font-size: 18px;&quot;&gt;Stream&lt;/font&gt;" style="text;html=1;align=center;verticalAlign=middle;whiteSpace=wrap;rounded=0;" vertex="1" parent="1">
          <mxGeometry x="-371" y="1801.92" width="60" height="30" as="geometry" />
        </mxCell>
        <mxCell id="JdCWdgSExFU_v7JM7AU1-46" value="&lt;font style=&quot;font-size: 18px;&quot;&gt;Time Limit&lt;/font&gt;" style="text;html=1;align=center;verticalAlign=middle;whiteSpace=wrap;rounded=0;" vertex="1" parent="1">
          <mxGeometry x="-195" y="1801.98" width="87" height="30" as="geometry" />
        </mxCell>
      </root>
    </mxGraphModel>
  </diagram>
</mxfile>
